{
  "accessors": [
    {
      "bufferView": 2,
      "componentType": 5126,
      "count": 1584,
      "max": [
        1.2564688920974731,
        6.381907837749168e-07,
        1.3889925479888916
      ],
      "min": [
        -1.234148383140564,
        -4.79520467777661e-09,
        -1.021667242050171
      ],
      "type": "VEC3"
    },
    {
      "bufferView": 2,
      "byteOffset": 19008,
      "componentType": 5126,
      "count": 1584,
      "max": [
        8.576220693612413e-07,
        1.0,
        6.817249413870741e-07
      ],
      "min": [
        -6.992691936602569e-08,
        1.0,
        -1.3912391239045974e-07
      ],
      "type": "VEC3"
    },
    {
      "bufferView": 1,
      "componentType": 5126,
      "count": 1584,
      "max": [
        0.9999011158943176,
        0.9769922494888306
      ],
      "min": [
        9.882816084427759e-05,
        9.882816084427759e-05
      ],
      "type": "VEC2"
    },
    {
      "bufferView": 0,
      "componentType": 5125,
      "count": 2358,
      "type": "SCALAR"
    },
    {
      "bufferView": 2,
      "byteOffset": 38016,
      "componentType": 5126,
      "count": 4,
      "max": [
        1.8621267080307007,
        0.0,
        1.8621267080307007
      ],
      "min": [
        -1.8621267080307007,
        0.0,
        -1.8621267080307007
      ],
      "type": "VEC3"
    },
    {
      "bufferView": 2,
      "byteOffset": 38064,
      "componentType": 5126,
      "count": 4,
      "max": [
        0.0,
        1.0,
        -0.0
      ],
      "min": [
        0.0,
        1.0,
        -0.0
      ],
      "type": "VEC3"
    },
    {
      "bufferView": 1,
      "byteOffset": 12672,
      "componentType": 5126,
      "count": 4,
      "max": [
        0.9998998641967773,
        0.9999000430107117
      ],
      "min": [
        9.998000314226374e-05,
        9.998000314226374e-05
      ],
      "type": "VEC2"
    },
    {
      "bufferView": 0,
      "byteOffset": 9432,
      "componentType": 5125,
      "count": 6,
      "type": "SCALAR"
    },
    {
      "bufferView": 2,
      "byteOffset": 38112,
      "componentType": 5126,
      "count": 1648,
      "max": [
        0.7929586172103882,
        1.394510285024353e-08,
        0.9075750708580017
      ],
      "min": [
        -0.7952924966812134,
        -4.0437384996039327e-07,
        -0.6489822864532471
      ],
      "type": "VEC3"
    },
    {
      "bufferView": 2,
      "byteOffset": 57888,
      "componentType": 5126,
      "count": 1648,
      "max": [
        4.3516717340708055e-08,
        1.0,
        1.7567253962624818e-07
      ],
      "min": [
        -5.85822306220507e-07,
        1.0,
        -1.1321226338623092e-06
      ],
      "type": "VEC3"
    },
    {
      "bufferView": 1,
      "byteOffset": 12704,
      "componentType": 5126,
      "count": 1648,
      "max": [
        0.9799586534500122,
        0.9999009966850281
      ],
      "min": [
        9.8978060123045e-05,
        9.8978060123045e-05
      ],
      "type": "VEC2"
    },
    {
      "bufferView": 0,
      "byteOffset": 9456,
      "componentType": 5125,
      "count": 2472,
      "type": "SCALAR"
    },
    {
      "bufferView": 2,
      "byteOffset": 77664,
      "componentType": 5126,
      "count": 500,
      "max": [
        1.0963236093521118,
        3.498761600440048e-07,
        1.2048916816711426
      ],
      "min": [
        -1.046379804611206,
        -2.903678186783054e-08,
        -0.8663917779922485
      ],
      "type": "VEC3"
    },
    {
      "bufferView": 2,
      "byteOffset": 83664,
      "componentType": 5126,
      "count": 500,
      "max": [
        1.8464174189603e-08,
        1.0,
        4.5531063364023794e-08
      ],
      "min": [
        -3.2326707355423423e-07,
        1.0,
        -1.9995320599264232e-07
      ],
      "type": "VEC3"
    },
    {
      "bufferView": 1,
      "byteOffset": 25888,
      "componentType": 5126,
      "count": 500,
      "max": [
        0.9629451632499695,
        0.9999018311500549
      ],
      "min": [
        9.811514610191807e-05,
        9.811514610191807e-05
      ],
      "type": "VEC2"
    },
    {
      "bufferView": 0,
      "byteOffset": 19344,
      "componentType": 5125,
      "count": 2592,
      "type": "SCALAR"
    },
    {
      "bufferView": 2,
      "byteOffset": 89664,
      "componentType": 5126,
      "count": 1776,
      "max": [
        0.9399222135543823,
        1.436939243149027e-07,
        1.0212596654891968
      ],
      "min": [
        -0.8639621138572693,
        -3.193660003120158e-09,
        -0.7780050039291382
      ],
      "type": "VEC3"
    },
    {
      "bufferView": 2,
      "byteOffset": 110976,
      "componentType": 5126,
      "count": 1776,
      "max": [
        1.8143558691008366e-06,
        1.0,
        1.6967632632258756e-07
      ],
      "min": [
        -7.877273588974276e-08,
        1.0,
        -2.440171158468729e-07
      ],
      "type": "VEC3"
    },
    {
      "bufferView": 1,
      "byteOffset": 29888,
      "componentType": 5126,
      "count": 1776,
      "max": [
        0.9973387122154236,
        0.9999001026153564
      ],
      "min": [
        9.985188080463558e-05,
        9.985188080463558e-05
      ],
      "type": "VEC2"
    },
    {
      "bufferView": 0,
      "byteOffset": 29712,
      "componentType": 5125,
      "count": 2664,
      "type": "SCALAR"
    },
    {
      "bufferView": 2,
      "byteOffset": 132288,
      "componentType": 5126,
      "count": 2557,
      "max": [
        0.9512143731117249,
        0.0642848014831543,
        1.1662806272506714
      ],
      "min": [
        -0.953728199005127,
        0.06428410112857819,
        -0.8396108150482178
      ],
      "type": "VEC3"
    },
    {
      "bufferView": 2,
      "byteOffset": 162972,
      "componentType": 5126,
      "count": 2557,
      "max": [
        1.2891382539237384e-05,
        1.0,
        3.175163783453172e-06
      ],
      "min": [
        -6.097871391830267e-06,
        1.0,
        -4.7574071686540265e-06
      ],
      "type": "VEC3"
    },
    {
      "bufferView": 1,
      "byteOffset": 44096,
      "componentType": 5126,
      "count": 2557,
      "max": [
        0.9880456328392029,
        0.9406293630599976
      ],
      "min": [
        0.012006967328488827,
        0.012262695468962193
      ],
      "type": "VEC2"
    },
    {
      "bufferView": 0,
      "byteOffset": 40368,
      "componentType": 5125,
      "count": 3864,
      "type": "SCALAR"
    },
    {
      "bufferView": 2,
      "byteOffset": 193656,
      "componentType": 5126,
      "count": 80,
      "max": [
        3.3716046810150146,
        -0.07539558410644531,
        5.047409534454346
      ],
      "min": [
        -3.3841259479522705,
        -6.824096202850342,
        -5.960464477539063e-08
      ],
      "type": "VEC3"
    },
    {
      "bufferView": 2,
      "byteOffset": 194616,
      "componentType": 5126,
      "count": 80,
      "max": [
        1.0,
        1.0,
        -0.0
      ],
      "min": [
        -1.0,
        -1.0,
        -0.0
      ],
      "type": "VEC3"
    },
    {
      "bufferView": 1,
      "byteOffset": 64552,
      "componentType": 5126,
      "count": 80,
      "max": [
        0.1879958063364029,
        0.9999032616615295
      ],
      "min": [
        9.671280713519081e-05,
        9.671280713519081e-05
      ],
      "type": "VEC2"
    },
    {
      "bufferView": 0,
      "byteOffset": 55824,
      "componentType": 5125,
      "count": 120,
      "type": "SCALAR"
    },
    {
      "bufferView": 2,
      "byteOffset": 195576,
      "componentType": 5126,
      "count": 88,
      "max": [
        2.5284793376922607,
        2.0129871368408203,
        0.9243972897529602
      ],
      "min": [
        -2.550950765609741,
        -2.0026605129241943,
        -1.627946376800537
      ],
      "type": "VEC3"
    },
    {
      "bufferView": 2,
      "byteOffset": 196632,
      "componentType": 5126,
      "count": 88,
      "max": [
        1.0,
        1.0,
        1.0
      ],
      "min": [
        -1.0,
        -1.0,
        -1.0
      ],
      "type": "VEC3"
    },
    {
      "bufferView": 1,
      "byteOffset": 65192,
      "componentType": 5126,
      "count": 88,
      "max": [
        0.875,
        0.7500000596046448
      ],
      "min": [
        0.125,
        0.0
      ],
      "type": "VEC2"
    },
    {
      "bufferView": 0,
      "byteOffset": 56304,
      "componentType": 5125,
      "count": 132,
      "type": "SCALAR"
    },
    {
      "bufferView": 2,
      "byteOffset": 197688,
      "componentType": 5126,
      "count": 114,
      "max": [
        2.623518943786621,
        1.4677151441574097,
        1.4250385761260986
      ],
      "min": [
        -1.5588107109069824,
        -1.4676437377929688,
        -1.428346872329712
      ],
      "type": "VEC3"
    },
    {
      "bufferView": 2,
      "byteOffset": 199056,
      "componentType": 5126,
      "count": 114,
      "max": [
        0.9733460545539856,
        0.9923081994056702,
        0.9681114554405212
      ],
      "min": [
        -0.9894862771034241,
        -0.9948509335517883,
        -0.9929297566413879
      ],
      "type": "VEC3"
    },
    {
      "bufferView": 1,
      "byteOffset": 65896,
      "componentType": 5126,
      "count": 114,
      "max": [
        0.9998906850814819,
        0.630815327167511
      ],
      "min": [
        0.00010931207361863926,
        0.00010931207361863926
      ],
      "type": "VEC2"
    },
    {
      "bufferView": 0,
      "byteOffset": 56832,
      "componentType": 5125,
      "count": 576,
      "type": "SCALAR"
    },
    {
      "bufferView": 2,
      "byteOffset": 200424,
      "componentType": 5126,
      "count": 314,
      "max": [
        49.32387161254883,
        1.1895838975906372,
        1.3210170269012451
      ],
      "min": [
        -1.8108463287353516,
        -1.1912554502487183,
        -1.2744426727294922
      ],
      "type": "VEC3"
    },
    {
      "bufferView": 2,
      "byteOffset": 204192,
      "componentType": 5126,
      "count": 314,
      "max": [
        0.998755931854248,
        0.9996659755706787,
        0.9997501969337463
      ],
      "min": [
        -0.9903038144111633,
        -0.9973462224006653,
        -0.9964407682418823
      ],
      "type": "VEC3"
    },
    {
      "bufferView": 1,
      "byteOffset": 66808,
      "componentType": 5126,
      "count": 314,
      "max": [
        0.301717609167099,
        0.9998574256896973
      ],
      "min": [
        0.0001426028902642429,
        0.0001426028902642429
      ],
      "type": "VEC2"
    },
    {
      "bufferView": 1,
      "byteOffset": 69320,
      "componentType": 5126,
      "count": 314,
      "max": [
        0.301717609167099,
        0.9998574256896973
      ],
      "min": [
        0.0001426028902642429,
        0.0001426028902642429
      ],
      "type": "VEC2"
    },
    {
      "bufferView": 0,
      "byteOffset": 59136,
      "componentType": 5125,
      "count": 1152,
      "type": "SCALAR"
    },
    {
      "bufferView": 2,
      "byteOffset": 207960,
      "componentType": 5126,
      "count": 192,
      "max": [
        10.164252281188965,
        2.612030029296875,
        2.572650909423828
      ],
      "min": [
        -1.6842037439346313,
        -2.4749279022216797,
        -2.447934627532959
      ],
      "type": "VEC3"
    },
    {
      "bufferView": 2,
      "byteOffset": 210264,
      "componentType": 5126,
      "count": 192,
      "max": [
        0.02756907232105732,
        0.9949579238891602,
        0.9882768988609314
      ],
      "min": [
        -0.9899500608444214,
        -0.9899140000343323,
        -0.9932911992073059
      ],
      "type": "VEC3"
    },
    {
      "bufferView": 1,
      "byteOffset": 71832,
      "componentType": 5126,
      "count": 192,
      "max": [
        0.9998881220817566,
        0.6122216582298279
      ],
      "min": [
        0.00011186375195393339,
        0.00011186375195393339
      ],
      "type": "VEC2"
    },
    {
      "bufferView": 1,
      "byteOffset": 73368,
      "componentType": 5126,
      "count": 192,
      "max": [
        0.9998881220817566,
        0.6122216582298279
      ],
      "min": [
        0.00011186375195393339,
        0.00011186375195393339
      ],
      "type": "VEC2"
    },
    {
      "bufferView": 0,
      "byteOffset": 63744,
      "componentType": 5125,
      "count": 864,
      "type": "SCALAR"
    },
    {
      "bufferView": 2,
      "byteOffset": 212568,
      "componentType": 5126,
      "count": 114,
      "max": [
        3.0961620807647705,
        1.3745195865631104,
        1.518383264541626
      ],
      "min": [
        -1.3030165433883667,
        -1.3108001947402954,
        -1.3034603595733643
      ],
      "type": "VEC3"
    },
    {
      "bufferView": 2,
      "byteOffset": 213936,
      "componentType": 5126,
      "count": 114,
      "max": [
        0.9877750873565674,
        0.9982205033302307,
        0.9986245036125183
      ],
      "min": [
        -0.9974650740623474,
        -0.9766515493392944,
        -0.9910948872566223
      ],
      "type": "VEC3"
    },
    {
      "bufferView": 1,
      "byteOffset": 74904,
      "componentType": 5126,
      "count": 114,
      "max": [
        0.9998945593833923,
        0.5734379291534424
      ],
      "min": [
        0.0001054817985277623,
        0.0001054817985277623
      ],
      "type": "VEC2"
    },
    {
      "bufferView": 0,
      "byteOffset": 67200,
      "componentType": 5125,
      "count": 576,
      "type": "SCALAR"
    },
    {
      "bufferView": 2,
      "byteOffset": 215304,
      "componentType": 5126,
      "count": 314,
      "max": [
        81.10382843017578,
        1.1448220014572144,
        1.2239980697631836
      ],
      "min": [
        -1.7828266620635986,
        -1.3267004489898682,
        -1.3316570520401
      ],
      "type": "VEC3"
    },
    {
      "bufferView": 2,
      "byteOffset": 219072,
      "componentType": 5126,
      "count": 314,
      "max": [
        0.12459971755743027,
        0.9998632073402405,
        0.9995033144950867
      ],
      "min": [
        -0.9975211024284363,
        -0.9998958110809326,
        -0.99857497215271
      ],
      "type": "VEC3"
    },
    {
      "bufferView": 1,
      "byteOffset": 75816,
      "componentType": 5126,
      "count": 314,
      "max": [
        0.20200154185295105,
        0.9998864531517029
      ],
      "min": [
        0.00011365809768904,
        0.00011365809768904
      ],
      "type": "VEC2"
    },
    {
      "bufferView": 1,
      "byteOffset": 78328,
      "componentType": 5126,
      "count": 314,
      "max": [
        0.20200154185295105,
        0.9998864531517029
      ],
      "min": [
        0.00011365809768904,
        0.00011365809768904
      ],
      "type": "VEC2"
    },
    {
      "bufferView": 0,
      "byteOffset": 69504,
      "componentType": 5125,
      "count": 1152,
      "type": "SCALAR"
    },
    {
      "bufferView": 2,
      "byteOffset": 222840,
      "componentType": 5126,
      "count": 192,
      "max": [
        11.398346900939941,
        3.0730490684509277,
        2.7055349349975586
      ],
      "min": [
        -2.274853229522705,
        -2.6116392612457275,
        -3.176544189453125
      ],
      "type": "VEC3"
    },
    {
      "bufferView": 2,
      "byteOffset": 225144,
      "componentType": 5126,
      "count": 192,
      "max": [
        0.1747686117887497,
        0.9939298033714294,
        0.9959755539894104
      ],
      "min": [
        -0.9961638450622559,
        -0.9980126023292542,
        -0.9898886680603027
      ],
      "type": "VEC3"
    },
    {
      "bufferView": 1,
      "byteOffset": 80840,
      "componentType": 5126,
      "count": 192,
      "max": [
        0.8794650435447693,
        0.999859631061554
      ],
      "min": [
        0.00014032948820386082,
        0.00014032948820386082
      ],
      "type": "VEC2"
    },
    {
      "bufferView": 1,
      "byteOffset": 82376,
      "componentType": 5126,
      "count": 192,
      "max": [
        0.8794650435447693,
        0.999859631061554
      ],
      "min": [
        0.00014032948820386082,
        0.00014032948820386082
      ],
      "type": "VEC2"
    },
    {
      "bufferView": 0,
      "byteOffset": 74112,
      "componentType": 5125,
      "count": 864,
      "type": "SCALAR"
    },
    {
      "bufferView": 2,
      "byteOffset": 227448,
      "componentType": 5126,
      "count": 114,
      "max": [
        2.5970540046691895,
        1.2829947471618652,
        1.3642749786376953
      ],
      "min": [
        -1.6108490228652954,
        -1.5824223756790161,
        -1.3481764793395996
      ],
      "type": "VEC3"
    },
    {
      "bufferView": 2,
      "byteOffset": 228816,
      "componentType": 5126,
      "count": 114,
      "max": [
        0.9647921919822693,
        0.9844338893890381,
        0.988815188407898
      ],
      "min": [
        -0.9947082996368408,
        -0.9548686146736145,
        -0.9967328906059265
      ],
      "type": "VEC3"
    },
    {
      "bufferView": 1,
      "byteOffset": 83912,
      "componentType": 5126,
      "count": 114,
      "max": [
        0.6223429441452026,
        0.9998891353607178
      ],
      "min": [
        0.00011086859740316868,
        0.00011086859740316868
      ],
      "type": "VEC2"
    },
    {
      "bufferView": 0,
      "byteOffset": 77568,
      "componentType": 5125,
      "count": 576,
      "type": "SCALAR"
    },
    {
      "bufferView": 2,
      "byteOffset": 230184,
      "componentType": 5126,
      "count": 314,
      "max": [
        93.47817993164063,
        1.0946848392486572,
        1.2451732158660889
      ],
      "min": [
        -1.773522138595581,
        -1.2639012336730957,
        -1.168325662612915
      ],
      "type": "VEC3"
    },
    {
      "bufferView": 2,
      "byteOffset": 233952,
      "componentType": 5126,
      "count": 314,
      "max": [
        0.9990090131759644,
        0.9998368620872498,
        0.9999075531959534
      ],
      "min": [
        -0.9987263679504395,
        -0.9997031092643738,
        -0.9998990893363953
      ],
      "type": "VEC3"
    },
    {
      "bufferView": 1,
      "byteOffset": 84824,
      "componentType": 5126,
      "count": 314,
      "max": [
        0.17849117517471313,
        0.9998944401741028
      ],
      "min": [
        0.00010563498653937131,
        0.00010563498653937131
      ],
      "type": "VEC2"
    },
    {
      "bufferView": 1,
      "byteOffset": 87336,
      "componentType": 5126,
      "count": 314,
      "max": [
        0.17849117517471313,
        0.9998944401741028
      ],
      "min": [
        0.00010563498653937131,
        0.00010563498653937131
      ],
      "type": "VEC2"
    },
    {
      "bufferView": 0,
      "byteOffset": 79872,
      "componentType": 5125,
      "count": 1152,
      "type": "SCALAR"
    },
    {
      "bufferView": 2,
      "byteOffset": 237720,
      "componentType": 5126,
      "count": 192,
      "max": [
        13.746898651123047,
        4.033649921417236,
        3.990464925765991
      ],
      "min": [
        -1.6887259483337402,
        -3.8984785079956055,
        -4.02593994140625
      ],
      "type": "VEC3"
    },
    {
      "bufferView": 2,
      "byteOffset": 240024,
      "componentType": 5126,
      "count": 192,
      "max": [
        -0.08245129138231277,
        0.9863011837005615,
        0.9905024170875549
      ],
      "min": [
        -0.9941686391830444,
        -0.9941513538360596,
        -0.9917333722114563
      ],
      "type": "VEC3"
    },
    {
      "bufferView": 1,
      "byteOffset": 89848,
      "componentType": 5126,
      "count": 192,
      "max": [
        0.7080222964286804,
        0.9998725652694702
      ],
      "min": [
        0.000127438543131575,
        0.000127438543131575
      ],
      "type": "VEC2"
    },
    {
      "bufferView": 1,
      "byteOffset": 91384,
      "componentType": 5126,
      "count": 192,
      "max": [
        0.7080222964286804,
        0.9998725652694702
      ],
      "min": [
        0.000127438543131575,
        0.000127438543131575
      ],
      "type": "VEC2"
    },
    {
      "bufferView": 0,
      "byteOffset": 84480,
      "componentType": 5125,
      "count": 864,
      "type": "SCALAR"
    },
    {
      "bufferView": 2,
      "byteOffset": 242328,
      "componentType": 5126,
      "count": 720,
      "max": [
        0.9776120185852051,
        0.039206963032484055,
        0.9776508212089539
      ],
      "min": [
        -0.9776118993759155,
        -0.03920697048306465,
        -0.9776507019996643
      ],
      "type": "VEC3"
    },
    {
      "bufferView": 2,
      "byteOffset": 250968,
      "componentType": 5126,
      "count": 720,
      "max": [
        0.9989309310913086,
        0.9999773502349854,
        0.9989310503005981
      ],
      "min": [
        -0.9989309310913086,
        -0.9999716877937317,
        -0.9989311099052429
      ],
      "type": "VEC3"
    },
    {
      "bufferView": 1,
      "byteOffset": 92920,
      "componentType": 5126,
      "count": 720,
      "max": [
        0.9998189210891724,
        0.9468008279800415
      ],
      "min": [
        0.0001809692184906453,
        0.0001809692184906453
      ],
      "type": "VEC2"
    },
    {
      "bufferView": 0,
      "byteOffset": 87936,
      "componentType": 5125,
      "count": 3456,
      "type": "SCALAR"
    },
    {
      "bufferView": 2,
      "byteOffset": 259608,
      "componentType": 5126,
      "count": 528,
      "max": [
        1.699479103088379,
        1.734952449798584,
        1.6869455575942993
      ],
      "min": [
        -1.717268466949463,
        -1.7190196514129639,
        -1.6807905435562134
      ],
      "type": "VEC3"
    },
    {
      "bufferView": 2,
      "byteOffset": 265944,
      "componentType": 5126,
      "count": 528,
      "max": [
        0.9965358972549438,
        0.9975599646568298,
        0.9979845881462097
      ],
      "min": [
        -0.9993969202041626,
        -0.9989044070243835,
        -0.9966269731521606
      ],
      "type": "VEC3"
    },
    {
      "bufferView": 1,
      "byteOffset": 98680,
      "componentType": 5126,
      "count": 528,
      "max": [
        0.8750001192092896,
        1.0000001192092896
      ],
      "min": [
        0.125,
        0.0
      ],
      "type": "VEC2"
    },
    {
      "bufferView": 0,
      "byteOffset": 101760,
      "componentType": 5125,
      "count": 2304,
      "type": "SCALAR"
    },
    {
      "bufferView": 2,
      "byteOffset": 272280,
      "componentType": 5126,
      "count": 671,
      "max": [
        1.6672616004943848,
        1.6672616004943848,
        1.6672616004943848
      ],
      "min": [
        -1.6672616004943848,
        -1.6672616004943848,
        -1.6672616004943848
      ],
      "type": "VEC3"
    },
    {
      "bufferView": 2,
      "byteOffset": 280332,
      "componentType": 5126,
      "count": 671,
      "max": [
        1.0,
        1.0,
        1.0
      ],
      "min": [
        -1.0,
        -1.0,
        -1.0
      ],
      "type": "VEC3"
    },
    {
      "bufferView": 1,
      "byteOffset": 102904,
      "componentType": 5126,
      "count": 671,
      "max": [
        0.8750001192092896,
        1.0000001192092896
      ],
      "min": [
        0.125,
        0.0
      ],
      "type": "VEC2"
    },
    {
      "bufferView": 0,
      "byteOffset": 110976,
      "componentType": 5125,
      "count": 3600,
      "type": "SCALAR"
    },
    {
      "bufferView": 2,
      "byteOffset": 288384,
      "componentType": 5126,
      "count": 781,
      "max": [
        1.7583903074264526,
        1.8186088800430298,
        1.773632287979126
      ],
      "min": [
        -1.8033043146133423,
        -1.7991673946380615,
        -1.7485365867614746
      ],
      "type": "VEC3"
    },
    {
      "bufferView": 2,
      "byteOffset": 297756,
      "componentType": 5126,
      "count": 781,
      "max": [
        0.9968194961547852,
        0.9900356531143188,
        0.9973630309104919
      ],
      "min": [
        -0.9933889508247375,
        -0.9955955147743225,
        -0.9970492720603943
      ],
      "type": "VEC3"
    },
    {
      "bufferView": 1,
      "byteOffset": 108272,
      "componentType": 5126,
      "count": 781,
      "max": [
        0.8750001192092896,
        1.0000001192092896
      ],
      "min": [
        0.125,
        0.0
      ],
      "type": "VEC2"
    },
    {
      "bufferView": 0,
      "byteOffset": 125376,
      "componentType": 5125,
      "count": 3600,
      "type": "SCALAR"
    },
    {
      "bufferView": 2,
      "byteOffset": 307128,
      "componentType": 5126,
      "count": 781,
      "max": [
        1.7160805463790894,
        1.7483404874801636,
        1.7122864723205566
      ],
      "min": [
        -1.7401416301727295,
        -1.737925410270691,
        -1.7005481719970703
      ],
      "type": "VEC3"
    },
    {
      "bufferView": 2,
      "byteOffset": 316500,
      "componentType": 5126,
      "count": 781,
      "max": [
        0.9990391731262207,
        0.9947599172592163,
        0.9990124106407166
      ],
      "min": [
        -0.9979404807090759,
        -0.9978641867637634,
        -0.9953933954238892
      ],
      "type": "VEC3"
    },
    {
      "bufferView": 1,
      "byteOffset": 114520,
      "componentType": 5126,
      "count": 781,
      "max": [
        0.8750001192092896,
        1.0000001192092896
      ],
      "min": [
        0.125,
        0.0
      ],
      "type": "VEC2"
    },
    {
      "bufferView": 0,
      "byteOffset": 139776,
      "componentType": 5125,
      "count": 3600,
      "type": "SCALAR"
    },
    {
      "bufferView": 2,
      "byteOffset": 325872,
      "componentType": 5126,
      "count": 781,
      "max": [
        1.7583903074264526,
        1.8186088800430298,
        1.773632287979126
      ],
      "min": [
        -1.8033043146133423,
        -1.7991673946380615,
        -1.7485365867614746
      ],
      "type": "VEC3"
    },
    {
      "bufferView": 2,
      "byteOffset": 335244,
      "componentType": 5126,
      "count": 781,
      "max": [
        0.9968194961547852,
        0.9900356531143188,
        0.9973630309104919
      ],
      "min": [
        -0.9933889508247375,
        -0.9955955147743225,
        -0.9970492720603943
      ],
      "type": "VEC3"
    },
    {
      "bufferView": 1,
      "byteOffset": 120768,
      "componentType": 5126,
      "count": 781,
      "max": [
        0.8750001192092896,
        1.0000001192092896
      ],
      "min": [
        0.125,
        0.0
      ],
      "type": "VEC2"
    },
    {
      "bufferView": 0,
      "byteOffset": 154176,
      "componentType": 5125,
      "count": 3600,
      "type": "SCALAR"
    },
    {
      "bufferView": 2,
      "byteOffset": 344616,
      "componentType": 5126,
      "count": 781,
      "max": [
        1.6524357795715332,
        1.626572847366333,
        1.6309748888015747
      ],
      "min": [
        -1.6143602132797241,
        -1.638838291168213,
        -1.682555079460144
      ],
      "type": "VEC3"
    },
    {
      "bufferView": 2,
      "byteOffset": 353988,
      "componentType": 5126,
      "count": 781,
      "max": [
        0.9989781975746155,
        0.9956501126289368,
        0.9984538555145264
      ],
      "min": [
        -0.9986782670021057,
        -0.9965193867683411,
        -0.9950547814369202
      ],
      "type": "VEC3"
    },
    {
      "bufferView": 1,
      "byteOffset": 127016,
      "componentType": 5126,
      "count": 781,
      "max": [
        0.8750001192092896,
        1.0000001192092896
      ],
      "min": [
        0.125,
        0.0
      ],
      "type": "VEC2"
    },
    {
      "bufferView": 0,
      "byteOffset": 168576,
      "componentType": 5125,
      "count": 3600,
      "type": "SCALAR"
    },
    {
      "bufferView": 2,
      "byteOffset": 363360,
      "componentType": 5126,
      "count": 2658,
      "max": [
        1.2496455907821655,
        -0.4009357988834381,
        0.8929613828659058
      ],
      "min": [
        -1.1983109712600708,
        -7.261464595794678,
        -0.850946843624115
      ],
      "type": "VEC3"
    },
    {
      "bufferView": 2,
      "byteOffset": 395256,
      "componentType": 5126,
      "count": 2658,
      "max": [
        0.9990121126174927,
        0.9996591806411743,
        0.9993591904640198
      ],
      "min": [
        -0.9994814991950989,
        -0.917582631111145,
        -0.9988071918487549
      ],
      "type": "VEC3"
    },
    {
      "bufferView": 1,
      "byteOffset": 133264,
      "componentType": 5126,
      "count": 2658,
      "max": [
        0.9998934268951416,
        0.975436806678772
      ],
      "min": [
        0.00010659851250238717,
        0.00010659851250238717
      ],
      "type": "VEC2"
    },
    {
      "bufferView": 1,
      "byteOffset": 154528,
      "componentType": 5126,
      "count": 2658,
      "max": [
        0.9998934268951416,
        0.975436806678772
      ],
      "min": [
        0.00010659851250238717,
        0.00010659851250238717
      ],
      "type": "VEC2"
    },
    {
      "bufferView": 0,
      "byteOffset": 182976,
      "componentType": 5125,
      "count": 15360,
      "type": "SCALAR"
    },
    {
      "bufferView": 2,
      "byteOffset": 427152,
      "componentType": 5126,
      "count": 338,
      "max": [
        11.849614143371582,
        -0.49823838472366333,
        1.0273075103759766
      ],
      "min": [
        -0.9849812388420105,
        -75.88356018066406,
        -0.8880167007446289
      ],
      "type": "VEC3"
    },
    {
      "bufferView": 2,
      "byteOffset": 431208,
      "componentType": 5126,
      "count": 338,
      "max": [
        0.9998952150344849,
        0.9998773336410522,
        0.9998834729194641
      ],
      "min": [
        -0.9998357892036438,
        -0.009787818416953087,
        -0.9961442351341248
      ],
      "type": "VEC3"
    },
    {
      "bufferView": 1,
      "byteOffset": 175792,
      "componentType": 5126,
      "count": 338,
      "max": [
        0.20293110609054565,
        0.9999335408210754
      ],
      "min": [
        6.649529677815735e-05,
        6.649529677815735e-05
      ],
      "type": "VEC2"
    },
    {
      "bufferView": 1,
      "byteOffset": 178496,
      "componentType": 5126,
      "count": 338,
      "max": [
        0.20293110609054565,
        0.9999335408210754
      ],
      "min": [
        6.649529677815735e-05,
        6.649529677815735e-05
      ],
      "type": "VEC2"
    },
    {
      "bufferView": 0,
      "byteOffset": 244416,
      "componentType": 5125,
      "count": 1560,
      "type": "SCALAR"
    },
    {
      "bufferView": 2,
      "byteOffset": 435264,
      "componentType": 5126,
      "count": 7395,
      "max": [
        1.7578543424606323,
        2.5863404273986816,
        1.1241933107376099
      ],
      "min": [
        -1.7578539848327637,
        -1.911607027053833,
        -2.001518964767456
      ],
      "type": "VEC3"
    },
    {
      "bufferView": 2,
      "byteOffset": 524004,
      "componentType": 5126,
      "count": 7395,
      "max": [
        1.0,
        1.0,
        1.0
      ],
      "min": [
        -1.0,
        -1.0,
        -1.0
      ],
      "type": "VEC3"
    },
    {
      "bufferView": 1,
      "byteOffset": 181200,
      "componentType": 5126,
      "count": 7395,
      "max": [
        0.98631751537323,
        0.9994314312934875
      ],
      "min": [
        0.0005686211516149342,
        0.0005686211516149342
      ],
      "type": "VEC2"
    },
    {
      "bufferView": 0,
      "byteOffset": 250656,
      "componentType": 5125,
      "count": 37044,
      "type": "SCALAR"
    },
    {
      "bufferView": 2,
      "byteOffset": 612744,
      "componentType": 5126,
      "count": 1140,
      "max": [
        1.150131106376648,
        20.98503303527832,
        1.1877723932266235
      ],
      "min": [
        -45.550838470458984,
        -21.955581665039063,
        -1.1877751350402832
      ],
      "type": "VEC3"
    },
    {
      "bufferView": 2,
      "byteOffset": 626424,
      "componentType": 5126,
      "count": 1140,
      "max": [
        1.0,
        1.0,
        1.0
      ],
      "min": [
        -1.0,
        -1.0,
        -1.0
      ],
      "type": "VEC3"
    },
    {
      "bufferView": 1,
      "byteOffset": 240360,
      "componentType": 5126,
      "count": 1140,
      "max": [
        0.9398426413536072,
        0.9995710253715515
      ],
      "min": [
        0.0004288379568606615,
        0.0004288379568606615
      ],
      "type": "VEC2"
    },
    {
      "bufferView": 0,
      "byteOffset": 398832,
      "componentType": 5125,
      "count": 4608,
      "type": "SCALAR"
    },
    {
      "bufferView": 2,
      "byteOffset": 640104,
      "componentType": 5126,
      "count": 13356,
      "max": [
        10.410340309143066,
        2.0392019748687744,
        0.5662232637405396
      ],
      "min": [
        -2.327777147293091,
        -2.039203405380249,
        -1.4331668615341187
      ],
      "type": "VEC3"
    },
    {
      "bufferView": 2,
      "byteOffset": 800376,
      "componentType": 5126,
      "count": 13356,
      "max": [
        1.0,
        1.0,
        1.0
      ],
      "min": [
        -1.0,
        -1.0,
        -1.0
      ],
      "type": "VEC3"
    },
    {
      "bufferView": 1,
      "byteOffset": 249480,
      "componentType": 5126,
      "count": 13356,
      "max": [
        0.9764178395271301,
        0.9993568658828735
      ],
      "min": [
        0.0006430494249798357,
        0.0006430494249798357
      ],
      "type": "VEC2"
    },
    {
      "bufferView": 0,
      "byteOffset": 417264,
      "componentType": 5125,
      "count": 24192,
      "type": "SCALAR"
    },
    {
      "bufferView": 2,
      "byteOffset": 960648,
      "componentType": 5126,
      "count": 4010,
      "max": [
        0.5381701588630676,
        2.0610644817352295,
        0.5386897921562195
      ],
      "min": [
        -0.5381701588630676,
        0.4114987552165985,
        -0.5376504063606262
      ],
      "type": "VEC3"
    },
    {
      "bufferView": 2,
      "byteOffset": 1008768,
      "componentType": 5126,
      "count": 4010,
      "max": [
        1.0,
        1.0,
        1.0
      ],
      "min": [
        -1.0,
        -1.0,
        -1.0
      ],
      "type": "VEC3"
    },
    {
      "bufferView": 1,
      "byteOffset": 356328,
      "componentType": 5126,
      "count": 4010,
      "max": [
        0.9996137022972107,
        0.9802784323692322
      ],
      "min": [
        0.0,
        0.0
      ],
      "type": "VEC2"
    },
    {
      "bufferView": 0,
      "byteOffset": 514032,
      "componentType": 5125,
      "count": 19656,
      "type": "SCALAR"
    },
    {
      "bufferView": 2,
      "byteOffset": 1056888,
      "componentType": 5126,
      "count": 8820,
      "max": [
        2.766244411468506,
        4.95038366317749,
        29.129886627197266
      ],
      "min": [
        -81.88168334960938,
        -4.503706455230713,
        -51.366546630859375
      ],
      "type": "VEC3"
    },
    {
      "bufferView": 2,
      "byteOffset": 1162728,
      "componentType": 5126,
      "count": 8820,
      "max": [
        0.9999727606773376,
        1.0,
        1.0
      ],
      "min": [
        -0.9999727010726929,
        -0.8985430598258972,
        -1.0
      ],
      "type": "VEC3"
    },
    {
      "bufferView": 1,
      "byteOffset": 388408,
      "componentType": 5126,
      "count": 8820,
      "max": [
        0.9994356632232666,
        0.9660676121711731
      ],
      "min": [
        0.000564306799788028,
        0.000564306799788028
      ],
      "type": "VEC2"
    },
    {
      "bufferView": 0,
      "byteOffset": 592656,
      "componentType": 5125,
      "count": 48888,
      "type": "SCALAR"
    }
  ],
  "asset": {
    "extras": {
      "author": "Sempai_desu (https://sketchfab.com/Sempai_desu)",
      "license": "CC-BY-4.0 (http://creativecommons.org/licenses/by/4.0/)",
      "source": "https://sketchfab.com/3d-models/free-deep-space-3008154780c4488eafb51b9634990f51",
      "title": "[FREE] Deep Space"
    },
    "generator": "Sketchfab-13.80.0",
    "version": "2.0"
  },
  "bufferViews": [
    {
      "buffer": 0,
      "byteLength": 788208,
      "name": "floatBufferViews",
      "target": 34963
    },
    {
      "buffer": 0,
      "byteLength": 458968,
      "byteOffset": 788208,
      "byteStride": 8,
      "name": "floatBufferViews",
      "target": 34962
    },
    {
      "buffer": 0,
      "byteLength": 1268568,
      "byteOffset": 1247176,
      "byteStride": 12,
      "name": "floatBufferViews",
      "target": 34962
    }
  ],
  "buffers": [
    {
      "byteLength": 2515744,
      "uri": "scene.bin"
    }
  ],
  "extensionsUsed": [
    "KHR_materials_unlit"
  ],
  "images": [
    {
      "uri": "textures/baza5_baseColor.png"
    },
    {
      "uri": "textures/baza6_baseColor.png"
    },
    {
      "uri": "textures/baza4_baseColor.png"
    },
    {
      "uri": "textures/baza3_baseColor.png"
    },
    {
      "uri": "textures/baza2_baseColor.png"
    },
    {
      "uri": "textures/baza1_baseColor.png"
    },
    {
      "uri": "textures/baza7_baseColor.png"
    },
    {
      "uri": "textures/metiorit_baza3_baseColor.png"
    },
    {
      "uri": "textures/metiorit3_baseColor.png"
    },
    {
      "uri": "textures/metiorit3_emissive.png"
    },
    {
      "uri": "textures/metiorit3_2_baseColor.png"
    },
    {
      "uri": "textures/metiorit3_2_emissive.png"
    },
    {
      "uri": "textures/metiorit_baza1_baseColor.png"
    },
    {
      "uri": "textures/metiorit1_baseColor.png"
    },
    {
      "uri": "textures/metiorit1_emissive.png"
    },
    {
      "uri": "textures/metiorit1_2_baseColor.png"
    },
    {
      "uri": "textures/metiorit1_2_emissive.png"
    },
    {
      "uri": "textures/metiorit_baza2_baseColor.png"
    },
    {
      "uri": "textures/metiorit2_baseColor.png"
    },
    {
      "uri": "textures/metiorit2_emissive.png"
    },
    {
      "uri": "textures/metiorit2_2_baseColor.png"
    },
    {
      "uri": "textures/metiorit2_2_emissive.png"
    },
    {
      "uri": "textures/planeta4_1_baseColor.png"
    },
    {
      "uri": "textures/planeta4_baseColor.png"
    },
    {
      "uri": "textures/planeta5_baseColor.png"
    },
    {
      "uri": "textures/planeta2_baseColor.png"
    },
    {
      "uri": "textures/planeta3_baseColor.png"
    },
    {
      "uri": "textures/planeta2_1_baseColor.png"
    },
    {
      "uri": "textures/planeta1_baseColor.png"
    },
    {
      "uri": "textures/Ogon_baseColor.png"
    },
    {
      "uri": "textures/Ogon_emissive.png"
    },
    {
      "uri": "textures/tyrbina_baseColor.png"
    },
    {
      "uri": "textures/tyrbina_emissive.png"
    },
    {
      "uri": "textures/roketa1_baseColor.png"
    },
    {
      "uri": "textures/spytnik2_baseColor.png"
    },
    {
      "uri": "textures/spytnik3_baseColor.png"
    },
    {
      "uri": "textures/spytnik1_baseColor.png"
    },
    {
      "uri": "textures/star_baseColor.png"
    }
  ],
  "materials": [
    {
      "doubleSided": true,
      "extensions": {
        "KHR_materials_unlit": {}
      },
      "name": "material_0",
      "pbrMetallicRoughness": {
        "baseColorFactor": [
          0.531038324355091,
          0.3725163122046566,
          0.6592412686351545,
          1.0
        ],
        "metallicFactor": 0.0
      }
    },
    {
      "doubleSided": true,
      "extensions": {
        "KHR_materials_unlit": {}
      },
      "name": "baza5",
      "pbrMetallicRoughness": {
        "baseColorTexture": {
          "index": 0
        },
        "metallicFactor": 0.0
      }
    },
    {
      "doubleSided": true,
      "extensions": {
        "KHR_materials_unlit": {}
      },
      "name": "baza6",
      "pbrMetallicRoughness": {
        "baseColorTexture": {
          "index": 1
        },
        "metallicFactor": 0.0
      }
    },
    {
      "doubleSided": true,
      "extensions": {
        "KHR_materials_unlit": {}
      },
      "name": "baza4",
      "pbrMetallicRoughness": {
        "baseColorTexture": {
          "index": 2
        },
        "metallicFactor": 0.0
      }
    },
    {
      "doubleSided": true,
      "extensions": {
        "KHR_materials_unlit": {}
      },
      "name": "baza3",
      "pbrMetallicRoughness": {
        "baseColorTexture": {
          "index": 3
        },
        "metallicFactor": 0.0
      }
    },
    {
      "doubleSided": true,
      "extensions": {
        "KHR_materials_unlit": {}
      },
      "name": "baza2",
      "pbrMetallicRoughness": {
        "baseColorTexture": {
          "index": 4
        },
        "metallicFactor": 0.0
      }
    },
    {
      "doubleSided": true,
      "extensions": {
        "KHR_materials_unlit": {}
      },
      "name": "baza1",
      "pbrMetallicRoughness": {
        "baseColorTexture": {
          "index": 5
        },
        "metallicFactor": 0.0
      }
    },
    {
      "doubleSided": true,
      "extensions": {
        "KHR_materials_unlit": {}
      },
      "name": "baza7",
      "pbrMetallicRoughness": {
        "baseColorTexture": {
          "index": 6
        },
        "metallicFactor": 0.0
      }
    },
    {
      "doubleSided": true,
      "extensions": {
        "KHR_materials_unlit": {}
      },
      "name": "metiorit_baza3",
      "pbrMetallicRoughness": {
        "baseColorTexture": {
          "index": 7
        },
        "metallicFactor": 0.0
      }
    },
    {
      "alphaMode": "BLEND",
      "doubleSided": true,
      "emissiveFactor": [
        1.0,
        1.0,
        1.0
      ],
      "emissiveTexture": {
        "index": 9
      },
      "extensions": {
        "KHR_materials_unlit": {}
      },
      "name": "metiorit3",
      "pbrMetallicRoughness": {
        "baseColorTexture": {
          "index": 8
        },
        "metallicFactor": 0.0
      }
    },
    {
      "alphaMode": "BLEND",
      "doubleSided": true,
      "emissiveFactor": [
        1.0,
        1.0,
        1.0
      ],
      "emissiveTexture": {
        "index": 11
      },
      "extensions": {
        "KHR_materials_unlit": {}
      },
      "name": "metiorit3_2",
      "pbrMetallicRoughness": {
        "baseColorTexture": {
          "index": 10
        },
        "metallicFactor": 0.0
      }
    },
    {
      "doubleSided": true,
      "extensions": {
        "KHR_materials_unlit": {}
      },
      "name": "metiorit_baza1",
      "pbrMetallicRoughness": {
        "baseColorTexture": {
          "index": 12
        },
        "metallicFactor": 0.0
      }
    },
    {
      "alphaMode": "BLEND",
      "doubleSided": true,
      "emissiveFactor": [
        1.0,
        1.0,
        1.0
      ],
      "emissiveTexture": {
        "index": 14
      },
      "extensions": {
        "KHR_materials_unlit": {}
      },
      "name": "metiorit1",
      "pbrMetallicRoughness": {
        "baseColorTexture": {
          "index": 13
        },
        "metallicFactor": 0.0
      }
    },
    {
      "alphaMode": "BLEND",
      "doubleSided": true,
      "emissiveFactor": [
        1.0,
        1.0,
        1.0
      ],
      "emissiveTexture": {
        "index": 16
      },
      "extensions": {
        "KHR_materials_unlit": {}
      },
      "name": "metiorit1_2",
      "pbrMetallicRoughness": {
        "baseColorTexture": {
          "index": 15
        },
        "metallicFactor": 0.0
      }
    },
    {
      "doubleSided": true,
      "extensions": {
        "KHR_materials_unlit": {}
      },
      "name": "metiorit_baza2",
      "pbrMetallicRoughness": {
        "baseColorTexture": {
          "index": 17
        },
        "metallicFactor": 0.0
      }
    },
    {
      "alphaMode": "BLEND",
      "doubleSided": true,
      "emissiveFactor": [
        1.0,
        1.0,
        1.0
      ],
      "emissiveTexture": {
        "index": 19
      },
      "extensions": {
        "KHR_materials_unlit": {}
      },
      "name": "metiorit2",
      "pbrMetallicRoughness": {
        "baseColorTexture": {
          "index": 18
        },
        "metallicFactor": 0.0
      }
    },
    {
      "alphaMode": "BLEND",
      "doubleSided": true,
      "emissiveFactor": [
        1.0,
        1.0,
        1.0
      ],
      "emissiveTexture": {
        "index": 21
      },
      "extensions": {
        "KHR_materials_unlit": {}
      },
      "name": "metiorit2_2",
      "pbrMetallicRoughness": {
        "baseColorTexture": {
          "index": 20
        },
        "metallicFactor": 0.0
      }
    },
    {
      "alphaMode": "BLEND",
      "doubleSided": true,
      "extensions": {
        "KHR_materials_unlit": {}
      },
      "name": "planeta4_1",
      "pbrMetallicRoughness": {
        "baseColorTexture": {
          "index": 22
        },
        "metallicFactor": 0.0
      }
    },
    {
      "doubleSided": true,
      "extensions": {
        "KHR_materials_unlit": {}
      },
      "name": "planeta4",
      "pbrMetallicRoughness": {
        "baseColorTexture": {
          "index": 23
        },
        "metallicFactor": 0.0
      }
    },
    {
      "doubleSided": true,
      "extensions": {
        "KHR_materials_unlit": {}
      },
      "name": "planeta5",
      "pbrMetallicRoughness": {
        "baseColorTexture": {
          "index": 24
        },
        "metallicFactor": 0.0
      }
    },
    {
      "doubleSided": true,
      "extensions": {
        "KHR_materials_unlit": {}
      },
      "name": "planeta2",
      "pbrMetallicRoughness": {
        "baseColorTexture": {
          "index": 25
        },
        "metallicFactor": 0.0
      }
    },
    {
      "doubleSided": true,
      "extensions": {
        "KHR_materials_unlit": {}
      },
      "name": "planeta3",
      "pbrMetallicRoughness": {
        "baseColorTexture": {
          "index": 26
        },
        "metallicFactor": 0.0
      }
    },
    {
      "alphaMode": "BLEND",
      "doubleSided": true,
      "extensions": {
        "KHR_materials_unlit": {}
      },
      "name": "planeta2_1",
      "pbrMetallicRoughness": {
        "baseColorFactor": [
          1.0,
          1.0,
          1.0,
          0.5531445429167022
        ],
        "baseColorTexture": {
          "index": 27
        },
        "metallicFactor": 0.0
      }
    },
    {
      "doubleSided": true,
      "extensions": {
        "KHR_materials_unlit": {}
      },
      "name": "planeta1",
      "pbrMetallicRoughness": {
        "baseColorTexture": {
          "index": 28
        },
        "metallicFactor": 0.0
      }
    },
    {
      "alphaMode": "BLEND",
      "doubleSided": true,
      "emissiveFactor": [
        1.0,
        1.0,
        1.0
      ],
      "emissiveTexture": {
        "index": 30
      },
      "extensions": {
        "KHR_materials_unlit": {}
      },
      "name": "Ogon",
      "pbrMetallicRoughness": {
        "baseColorTexture": {
          "index": 29
        },
        "metallicFactor": 0.0
      }
    },
    {
      "alphaMode": "BLEND",
      "doubleSided": true,
      "emissiveFactor": [
        1.0,
        1.0,
        1.0
      ],
      "emissiveTexture": {
        "index": 32
      },
      "extensions": {
        "KHR_materials_unlit": {}
      },
      "name": "tyrbina",
      "pbrMetallicRoughness": {
        "baseColorTexture": {
          "index": 31
        },
        "metallicFactor": 0.0
      }
    },
    {
      "doubleSided": true,
      "extensions": {
        "KHR_materials_unlit": {}
      },
      "name": "roketa1",
      "pbrMetallicRoughness": {
        "baseColorTexture": {
          "index": 33
        },
        "metallicFactor": 0.0
      }
    },
    {
      "doubleSided": true,
      "extensions": {
        "KHR_materials_unlit": {}
      },
      "name": "spytnik2",
      "pbrMetallicRoughness": {
        "baseColorTexture": {
          "index": 34
        },
        "metallicFactor": 0.0
      }
    },
    {
      "doubleSided": true,
      "extensions": {
        "KHR_materials_unlit": {}
      },
      "name": "spytnik3",
      "pbrMetallicRoughness": {
        "baseColorTexture": {
          "index": 35
        },
        "metallicFactor": 0.0
      }
    },
    {
      "doubleSided": true,
      "extensions": {
        "KHR_materials_unlit": {}
      },
      "name": "spytnik1",
      "pbrMetallicRoughness": {
        "baseColorTexture": {
          "index": 36
        },
        "metallicFactor": 0.0
      }
    },
    {
      "doubleSided": true,
      "extensions": {
        "KHR_materials_unlit": {}
      },
      "name": "star",
      "pbrMetallicRoughness": {
        "baseColorTexture": {
          "index": 37
        },
        "metallicFactor": 0.0
      }
    }
  ],
  "meshes": [
    {
      "name": "Object_0",
      "primitives": [
        {
          "attributes": {
            "NORMAL": 1,
            "POSITION": 0,
            "TEXCOORD_0": 2
          },
          "indices": 3,
          "material": 1,
          "mode": 4
        }
      ]
    },
    {
      "name": "Object_1",
      "primitives": [
        {
          "attributes": {
            "NORMAL": 5,
            "POSITION": 4,
            "TEXCOORD_0": 6
          },
          "indices": 7,
          "material": 2,
          "mode": 4
        }
      ]
    },
    {
      "name": "Object_2",
      "primitives": [
        {
          "attributes": {
            "NORMAL": 9,
            "POSITION": 8,
            "TEXCOORD_0": 10
          },
          "indices": 11,
          "material": 3,
          "mode": 4
        }
      ]
    },
    {
      "name": "Object_3",
      "primitives": [
        {
          "attributes": {
            "NORMAL": 13,
            "POSITION": 12,
            "TEXCOORD_0": 14
          },
          "indices": 15,
          "material": 4,
          "mode": 4
        }
      ]
    },
    {
      "name": "Object_4",
      "primitives": [
        {
          "attributes": {
            "NORMAL": 17,
            "POSITION": 16,
            "TEXCOORD_0": 18
          },
          "indices": 19,
          "material": 5,
          "mode": 4
        }
      ]
    },
    {
      "name": "Object_5",
      "primitives": [
        {
          "attributes": {
            "NORMAL": 21,
            "POSITION": 20,
            "TEXCOORD_0": 22
          },
          "indices": 23,
          "material": 6,
          "mode": 4
        }
      ]
    },
    {
      "name": "Object_6",
      "primitives": [
        {
          "attributes": {
            "NORMAL": 25,
            "POSITION": 24,
            "TEXCOORD_0": 26
          },
          "indices": 27,
          "material": 7,
          "mode": 4
        }
      ]
    },
    {
      "name": "Object_7",
      "primitives": [
        {
          "attributes": {
            "NORMAL": 29,
            "POSITION": 28,
            "TEXCOORD_0": 30
          },
          "indices": 31,
          "material": 0,
          "mode": 4
        }
      ]
    },
    {
      "name": "Object_8",
      "primitives": [
        {
          "attributes": {
            "NORMAL": 33,
            "POSITION": 32,
            "TEXCOORD_0": 34
          },
          "indices": 35,
          "material": 8,
          "mode": 4
        }
      ]
    },
    {
      "name": "Object_9",
      "primitives": [
        {
          "attributes": {
            "NORMAL": 37,
            "POSITION": 36,
            "TEXCOORD_0": 38,
            "TEXCOORD_1": 39
          },
          "indices": 40,
          "material": 9,
          "mode": 4
        }
      ]
    },
    {
      "name": "Object_10",
      "primitives": [
        {
          "attributes": {
            "NORMAL": 42,
            "POSITION": 41,
            "TEXCOORD_0": 43,
            "TEXCOORD_1": 44
          },
          "indices": 45,
          "material": 10,
          "mode": 4
        }
      ]
    },
    {
      "name": "Object_11",
      "primitives": [
        {
          "attributes": {
            "NORMAL": 47,
            "POSITION": 46,
            "TEXCOORD_0": 48
          },
          "indices": 49,
          "material": 11,
          "mode": 4
        }
      ]
    },
    {
      "name": "Object_12",
      "primitives": [
        {
          "attributes": {
            "NORMAL": 51,
            "POSITION": 50,
            "TEXCOORD_0": 52,
            "TEXCOORD_1": 53
          },
          "indices": 54,
          "material": 12,
          "mode": 4
        }
      ]
    },
    {
      "name": "Object_13",
      "primitives": [
        {
          "attributes": {
            "NORMAL": 56,
            "POSITION": 55,
            "TEXCOORD_0": 57,
            "TEXCOORD_1": 58
          },
          "indices": 59,
          "material": 13,
          "mode": 4
        }
      ]
    },
    {
      "name": "Object_14",
      "primitives": [
        {
          "attributes": {
            "NORMAL": 61,
            "POSITION": 60,
            "TEXCOORD_0": 62
          },
          "indices": 63,
          "material": 14,
          "mode": 4
        }
      ]
    },
    {
      "name": "Object_15",
      "primitives": [
        {
          "attributes": {
            "NORMAL": 65,
            "POSITION": 64,
            "TEXCOORD_0": 66,
            "TEXCOORD_1": 67
          },
          "indices": 68,
          "material": 15,
          "mode": 4
        }
      ]
    },
    {
      "name": "Object_16",
      "primitives": [
        {
          "attributes": {
            "NORMAL": 70,
            "POSITION": 69,
            "TEXCOORD_0": 71,
            "TEXCOORD_1": 72
          },
          "indices": 73,
          "material": 16,
          "mode": 4
        }
      ]
    },
    {
      "name": "Object_17",
      "primitives": [
        {
          "attributes": {
            "NORMAL": 75,
            "POSITION": 74,
            "TEXCOORD_0": 76
          },
          "indices": 77,
          "material": 17,
          "mode": 4
        }
      ]
    },
    {
      "name": "Object_18",
      "primitives": [
        {
          "attributes": {
            "NORMAL": 79,
            "POSITION": 78,
            "TEXCOORD_0": 80
          },
          "indices": 81,
          "material": 18,
          "mode": 4
        }
      ]
    },
    {
      "name": "Object_19",
      "primitives": [
        {
          "attributes": {
            "NORMAL": 83,
            "POSITION": 82,
            "TEXCOORD_0": 84
          },
          "indices": 85,
          "material": 19,
          "mode": 4
        }
      ]
    },
    {
      "name": "Object_20",
      "primitives": [
        {
          "attributes": {
            "NORMAL": 87,
            "POSITION": 86,
            "TEXCOORD_0": 88
          },
          "indices": 89,
          "material": 20,
          "mode": 4
        }
      ]
    },
    {
      "name": "Object_21",
      "primitives": [
        {
          "attributes": {
            "NORMAL": 91,
            "POSITION": 90,
            "TEXCOORD_0": 92
          },
          "indices": 93,
          "material": 21,
          "mode": 4
        }
      ]
    },
    {
      "name": "Object_22",
      "primitives": [
        {
          "attributes": {
            "NORMAL": 95,
            "POSITION": 94,
            "TEXCOORD_0": 96
          },
          "indices": 97,
          "material": 22,
          "mode": 4
        }
      ]
    },
    {
      "name": "Object_23",
      "primitives": [
        {
          "attributes": {
            "NORMAL": 99,
            "POSITION": 98,
            "TEXCOORD_0": 100
          },
          "indices": 101,
          "material": 23,
          "mode": 4
        }
      ]
    },
    {
      "name": "Object_24",
      "primitives": [
        {
          "attributes": {
            "NORMAL": 103,
            "POSITION": 102,
            "TEXCOORD_0": 104,
            "TEXCOORD_1": 105
          },
          "indices": 106,
          "material": 24,
          "mode": 4
        }
      ]
    },
    {
      "name": "Object_25",
      "primitives": [
        {
          "attributes": {
            "NORMAL": 108,
            "POSITION": 107,
            "TEXCOORD_0": 109,
            "TEXCOORD_1": 110
          },
          "indices": 111,
          "material": 25,
          "mode": 4
        }
      ]
    },
    {
      "name": "Object_26",
      "primitives": [
        {
          "attributes": {
            "NORMAL": 113,
            "POSITION": 112,
            "TEXCOORD_0": 114
          },
          "indices": 115,
          "material": 26,
          "mode": 4
        }
      ]
    },
    {
      "name": "Object_27",
      "primitives": [
        {
          "attributes": {
            "NORMAL": 117,
            "POSITION": 116,
            "TEXCOORD_0": 118
          },
          "indices": 119,
          "material": 27,
          "mode": 4
        }
      ]
    },
    {
      "name": "Object_28",
      "primitives": [
        {
          "attributes": {
            "NORMAL": 121,
            "POSITION": 120,
            "TEXCOORD_0": 122
          },
          "indices": 123,
          "material": 28,
          "mode": 4
        }
      ]
    },
    {
      "name": "Object_29",
      "primitives": [
        {
          "attributes": {
            "NORMAL": 125,
            "POSITION": 124,
            "TEXCOORD_0": 126
          },
          "indices": 127,
          "material": 29,
          "mode": 4
        }
      ]
    },
    {
      "name": "Object_30",
      "primitives": [
        {
          "attributes": {
            "NORMAL": 129,
            "POSITION": 128,
            "TEXCOORD_0": 130
          },
          "indices": 131,
          "material": 30,
          "mode": 4
        }
      ]
    }
  ],
  "nodes": [
    {
      "children": [
        1
      ],
      "matrix": [
        1.0,
        0.0,
        0.0,
        0.0,
        0.0,
        2.220446049250313e-16,
        -1.0,
        0.0,
        0.0,
        1.0,
        2.220446049250313e-16,
        0.0,
        0.0,
        0.0,
        0.0,
        1.0
      ],
      "name": "Sketchfab_model"
    },
    {
      "children": [
        2
      ],
      "name": "root"
    },
    {
      "children": [
        3,
        5,
        7,
        9,
        11,
        13,
        15,
        17,
        19,
        25,
        31,
        37,
        39,
        41,
        43,
        45,
        47,
        49,
        51,
        53,
        55,
        57,
        59,
        61,
        63
      ],
      "matrix": [
        1.0,
        0.0,
        0.0,
        0.0,
        0.0,
        2.220446049250313e-16,
        1.0,
        0.0,
        0.0,
        -1.0,
        2.220446049250313e-16,
        0.0,
        0.0,
        0.0,
        0.0,
        1.0
      ],
      "name": "GLTF_SceneRootNode"
    },
    {
      "children": [
        4
      ],
      "matrix": [
        2.9755399227142334,
        0.0,
        0.0,
        0.0,
        0.0,
        0.0,
        3.0571160316467285,
        0.0,
        0.0,
        -3.058478355407715,
        0.0,
        0.0,
        -0.03255095332860947,
        0.6238424777984619,
        -4.0,
        1.0
      ],
      "name": "Plane.007_0"
    },
    {
      "mesh": 0,
      "name": "Object_4"
    },
    {
      "children": [
        6
      ],
      "matrix": [
        4.099090099334717,
        0.0,
        0.0,
        0.0,
        0.0,
        0.0,
        3.322190523147583,
        0.0,
        0.0,
        -3.322190523147583,
        0.0,
        0.0,
        0.005080971866846085,
        0.0,
        -5.0,
        1.0
      ],
      "name": "Plane.005_1"
    },
    {
      "mesh": 1,
      "name": "Object_6"
    },
    {
      "children": [
        8
      ],
      "matrix": [
        4.334481239318848,
        0.0,
        0.0,
        0.0,
        0.0,
        0.0,
        4.420751094818115,
        0.0,
        0.0,
        -4.4227375984191895,
        0.0,
        0.0,
        0.0050577931106090546,
        0.5718437433242798,
        -3.000000238418579,
        1.0
      ],
      "name": "Plane.003_2"
    },
    {
      "mesh": 2,
      "name": "Object_8"
    },
    {
      "children": [
        10
      ],
      "matrix": [
        3.2128777503967285,
        0.0,
        0.0,
        0.0,
        0.0,
        0.0,
        3.322190523147583,
        0.0,
        0.0,
        -3.3236613273620605,
        0.0,
        0.0,
        -0.08023138344287872,
        0.5625292658805847,
        -2.0,
        1.0
      ],
      "name": "Plane.002_3"
    },
    {
      "mesh": 3,
      "name": "Object_10"
    },
    {
      "children": [
        12
      ],
      "matrix": [
        3.8163442611694336,
        0.0,
        0.0,
        0.0,
        0.0,
        0.0,
        3.824387550354004,
        0.0,
        0.0,
        -3.8261430263519287,
        0.0,
        0.0,
        -0.14494484663009644,
        0.465363472700119,
        -1.0,
        1.0
      ],
      "name": "Plane.001_4"
    },
    {
      "mesh": 4,
      "name": "Object_12"
    },
    {
      "children": [
        14
      ],
      "matrix": [
        3.530517578125,
        0.0,
        0.0,
        0.0,
        0.0,
        0.0,
        3.3568358421325684,
        0.0,
        0.0,
        -3.357290029525757,
        0.0,
        0.0,
        0.005080971866846085,
        0.5561304688453674,
        -0.16078400611877441,
        1.0
      ],
      "name": "Plane_5"
    },
    {
      "mesh": 5,
      "name": "Object_14"
    },
    {
      "children": [
        16
      ],
      "matrix": [
        1.0,
        0.0,
        0.0,
        0.0,
        0.0,
        1.0,
        0.0,
        0.0,
        0.0,
        0.0,
        1.0,
        0.0,
        0.0,
        3.442121982574463,
        -5.0,
        1.0
      ],
      "name": "Plane.010_6"
    },
    {
      "mesh": 6,
      "name": "Object_16"
    },
    {
      "children": [
        18
      ],
      "matrix": [
        3.442121744155884,
        0.0,
        0.0,
        0.0,
        0.0,
        3.442121744155884,
        0.0,
        0.0,
        0.0,
        0.0,
        3.442121744155884,
        0.0,
        0.0,
        0.0,
        -3.126879930496216,
        1.0
      ],
      "name": "Cube.002_7"
    },
    {
      "mesh": 7,
      "name": "Object_18"
    },
    {
      "children": [
        20,
        21,
        23
      ],
      "matrix": [
        0.025026444228995103,
        0.009759369356362934,
        0.0,
        0.0,
        -0.010296667870544628,
        0.02640426597223337,
        0.0,
        0.0,
        0.0,
        0.0,
        0.028340905904769897,
        0.0,
        -0.1224733367562294,
        2.23346209526062,
        1.2869139909744263,
        1.0
      ],
      "name": "Cube.004_10"
    },
    {
      "mesh": 8,
      "name": "Object_20"
    },
    {
      "children": [
        22
      ],
      "matrix": [
        1.3053193092346191,
        0.0,
        0.0,
        0.0,
        0.0,
        1.2372052669525146,
        0.0,
        0.0,
        0.0,
        0.0,
        1.237205147743225,
        0.0,
        -0.03819465637207031,
        0.01357412338256836,
        -7.62939453125e-06,
        1.0
      ],
      "name": "Cube.008_8"
    },
    {
      "mesh": 9,
      "name": "Object_22"
    },
    {
      "children": [
        24
      ],
      "matrix": [
        1.3053193092346191,
        0.0,
        0.0,
        0.0,
        0.0,
        1.2372052669525146,
        0.0,
        0.0,
        0.0,
        0.0,
        1.237205147743225,
        0.0,
        -0.03819465637207031,
        0.01357412338256836,
        -7.62939453125e-06,
        1.0
      ],
      "name": "Cube.021_9"
    },
    {
      "mesh": 10,
      "name": "Object_24"
    },
    {
      "children": [
        26,
        27,
        29
      ],
      "matrix": [
        0.015102399979786497,
        0.00588936371847906,
        0.0,
        0.0,
        -0.006213604238467632,
        0.01593386671483576,
        0.0,
        0.0,
        0.0,
        0.0,
        0.017102539539337158,
        0.0,
        0.7210034728050232,
        0.35338538885116577,
        1.8062692880630493,
        1.0
      ],
      "name": "Cube.009_13"
    },
    {
      "mesh": 11,
      "name": "Object_26"
    },
    {
      "children": [
        28
      ],
      "matrix": [
        1.3053193092346191,
        0.0,
        0.0,
        0.0,
        0.0,
        1.237205147743225,
        0.0,
        0.0,
        0.0,
        0.0,
        1.237205147743225,
        0.0,
        1.3453254699707031,
        0.013569831848144531,
        7.62939453125e-06,
        1.0
      ],
      "name": "Cube.010_11"
    },
    {
      "mesh": 12,
      "name": "Object_28"
    },
    {
      "children": [
        30
      ],
      "matrix": [
        1.3053193092346191,
        0.0,
        0.0,
        0.0,
        0.0,
        1.237205147743225,
        0.0,
        0.0,
        0.0,
        0.0,
        1.237205147743225,
        0.0,
        1.3453254699707031,
        0.013569831848144531,
        7.62939453125e-06,
        1.0
      ],
      "name": "Cube.019_12"
    },
    {
      "mesh": 13,
      "name": "Object_30"
    },
    {
      "children": [
        32,
        33,
        35
      ],
      "matrix": [
        0.011526902649633243,
        0.004495055245659694,
        0.0,
        0.0,
        -0.004742530309550282,
        0.012161515755319315,
        0.0,
        0.0,
        0.0,
        0.0,
        0.01305350661277771,
        0.0,
        -2.432142496109009,
        -1.132643222808838,
        0.5800274014472961,
        1.0
      ],
      "name": "Cube.011_16"
    },
    {
      "mesh": 14,
      "name": "Object_32"
    },
    {
      "children": [
        34
      ],
      "matrix": [
        1.3053191900253296,
        0.0,
        0.0,
        0.0,
        0.0,
        1.2372050285339355,
        0.0,
        0.0,
        0.0,
        0.0,
        1.2372050285339355,
        0.0,
        1.3453369140625,
        0.0135650634765625,
        0.0,
        1.0
      ],
      "name": "Cube.012_14"
    },
    {
      "mesh": 15,
      "name": "Object_34"
    },
    {
      "children": [
        36
      ],
      "matrix": [
        1.3053191900253296,
        0.0,
        0.0,
        0.0,
        0.0,
        1.2372050285339355,
        0.0,
        0.0,
        0.0,
        0.0,
        1.2372050285339355,
        0.0,
        0.3656768798828125,
        0.0135498046875,
        0.0,
        1.0
      ],
      "name": "Cube.020_15"
    },
    {
      "mesh": 16,
      "name": "Object_36"
    },
    {
      "children": [
        38
      ],
      "matrix": [
        -0.3808535763866473,
        -0.2620686198171637,
        0.7242706375685634,
        0.0,
        -0.08012138342088101,
        0.362035690074705,
        0.0888668887884482,
        0.0,
        -0.7487650554864625,
        -0.0634265757094606,
        -0.4166839697166428,
        0.0,
        1.3059605360031128,
        1.4536972045898438,
        1.0467787981033325,
        1.0
      ],
      "name": "Sphere.002_17"
    },
    {
      "mesh": 17,
      "name": "Object_38"
    },
    {
      "children": [
        40
      ],
      "matrix": [
        0.09663294111628168,
        -0.2628164126885754,
        0.0025263064919466825,
        -0.0,
        -0.13398290033321827,
        -0.051574235844290335,
        -0.24042765008863276,
        -0.0,
        -0.22611370957161828,
        -0.08175819766107535,
        0.14354416877244391,
        -0.0,
        1.3059605360031128,
        1.4536972045898438,
        1.0467787981033325,
        1.0
      ],
      "name": "Cube.007_18"
    },
    {
      "mesh": 18,
      "name": "Object_40"
    },
    {
      "children": [
        42
      ],
      "matrix": [
        -0.040751645169524196,
        0.12065637316474788,
        0.0,
        0.0,
        -0.12065637316474788,
        -0.040751645169524196,
        0.0,
        0.0,
        0.0,
        0.0,
        0.1273524910211563,
        0.0,
        -1.4757294654846191,
        0.45880126953125,
        -0.719856858253479,
        1.0
      ],
      "name": "Cube.018_19"
    },
    {
      "mesh": 19,
      "name": "Object_42"
    },
    {
      "children": [
        44
      ],
      "matrix": [
        0.18517006029886615,
        0.0055091525372304466,
        0.0,
        0.0,
        -0.0055091525372304466,
        0.18517006029886615,
        0.0,
        0.0,
        0.0,
        0.0,
        0.18525201082229614,
        0.0,
        0.6029977798461914,
        -0.8371143341064453,
        -0.4970800578594208,
        1.0
      ],
      "name": "Cube.022_20"
    },
    {
      "mesh": 20,
      "name": "Object_44"
    },
    {
      "children": [
        46
      ],
      "matrix": [
        0.2454703448940176,
        0.11276365647304085,
        0.0,
        0.0,
        -0.11276365647304085,
        0.2454703448940176,
        0.0,
        0.0,
        0.0,
        0.0,
        0.27013206481933594,
        0.0,
        -1.7262011766433716,
        2.2382659912109375,
        0.6292356252670288,
        1.0
      ],
      "name": "Cube.023_21"
    },
    {
      "mesh": 21,
      "name": "Object_46"
    },
    {
      "children": [
        48
      ],
      "matrix": [
        0.11556320707884149,
        0.08258900485786708,
        -0.13772288527845666,
        0.0,
        -0.053087181685591595,
        0.17978444860379367,
        0.06326685438753686,
        0.0,
        0.15155955388488754,
        -3.850314190011398e-09,
        0.12717354677089543,
        0.0,
        0.6029977798461914,
        -0.8371143341064453,
        -0.4970800578594208,
        1.0
      ],
      "name": "Cube.024_22"
    },
    {
      "mesh": 22,
      "name": "Object_48"
    },
    {
      "children": [
        50
      ],
      "matrix": [
        0.16833940599195069,
        0.0773314061881807,
        0.0,
        0.0,
        -0.0773314061881807,
        0.16833940599195069,
        0.0,
        0.0,
        0.0,
        0.0,
        0.18525201082229614,
        0.0,
        -1.1768118143081665,
        -1.347320556640625,
        0.6576370596885681,
        1.0
      ],
      "name": "Cube.025_23"
    },
    {
      "mesh": 23,
      "name": "Object_50"
    },
    {
      "children": [
        52
      ],
      "matrix": [
        0.048569802194833755,
        0.0,
        0.0,
        0.0,
        0.0,
        0.048569802194833755,
        0.0,
        0.0,
        0.0,
        0.0,
        0.048569802194833755,
        0.0,
        0.0,
        0.2847260534763336,
        -0.16078394651412964,
        1.0
      ],
      "name": "Cube.017_24"
    },
    {
      "mesh": 24,
      "name": "Object_52"
    },
    {
      "children": [
        54
      ],
      "matrix": [
        0.026000000536441803,
        0.0,
        0.0,
        0.0,
        0.0,
        0.026253169402480125,
        0.0,
        0.0,
        0.0,
        0.0,
        0.026000000536441803,
        0.0,
        -0.13991253077983856,
        0.3838520050048828,
        -0.33554425835609436,
        1.0
      ],
      "name": "Cylinder.005_25"
    },
    {
      "mesh": 25,
      "name": "Object_54"
    },
    {
      "children": [
        56
      ],
      "matrix": [
        0.13252730667591095,
        0.0,
        0.0,
        0.0,
        0.0,
        0.13252730667591095,
        0.0,
        0.0,
        0.0,
        0.0,
        0.13252730667591095,
        0.0,
        0.0,
        0.48391905426979065,
        -0.16216978430747986,
        1.0
      ],
      "name": "Sphere.001_26"
    },
    {
      "mesh": 26,
      "name": "Object_56"
    },
    {
      "children": [
        58
      ],
      "matrix": [
        0.005108380406681311,
        -0.00460806880984875,
        0.003628188219875727,
        0.0,
        0.0056902080089488065,
        0.002728160044242807,
        -0.004546676438762409,
        0.0,
        0.001421118084875461,
        0.005640606191734394,
        0.005163097542126509,
        0.0,
        2.0855729579925537,
        -1.1005011796951294,
        0.8241056203842163,
        1.0
      ],
      "name": "Cube.001_27"
    },
    {
      "mesh": 27,
      "name": "Object_58"
    },
    {
      "children": [
        60
      ],
      "matrix": [
        -0.07039834052771256,
        0.06350358972204494,
        -0.04999990090574957,
        0.0,
        -0.05982937891440853,
        -0.02868507465360359,
        0.04780577031412758,
        0.0,
        0.0010940447270166122,
        0.0043424073681274855,
        0.003974798330923003,
        0.0,
        2.256136655807495,
        -1.2472947835922241,
        0.9559434652328491,
        1.0
      ],
      "name": "Cube.005_28"
    },
    {
      "mesh": 28,
      "name": "Object_60"
    },
    {
      "children": [
        62
      ],
      "matrix": [
        0.46500377093655043,
        -0.4194616100129755,
        0.33026537642610926,
        0.0,
        0.5179662058901304,
        0.24833798890373543,
        -0.4138731942863664,
        0.0,
        0.12936100918105212,
        0.5134510386768536,
        0.4699846043341091,
        0.0,
        1.0602401494979858,
        -1.4356558322906494,
        1.471920371055603,
        1.0
      ],
      "name": "Cylinder.002_29"
    },
    {
      "mesh": 29,
      "name": "Object_62"
    },
    {
      "children": [
        64
      ],
      "matrix": [
        0.043942444026470184,
        0.0,
        0.0,
        0.0,
        0.0,
        -7.408142253230113e-09,
        0.04394244402646956,
        0.0,
        0.0,
        -0.04394244775175986,
        -7.408142881267107e-09,
        0.0,
        1.7161664962768555,
        0.06358063220977783,
        -0.5735926628112793,
        1.0
      ],
      "name": "Circle.161_30"
    },
    {
      "mesh": 30,
      "name": "Object_64"
    }
  ],
  "samplers": [
    {
      "magFilter": 9729,
      "minFilter": 9987,
      "wrapS": 10497,
      "wrapT": 10497
    }
  ],
  "scene": 0,
  "scenes": [
    {
      "name": "Sketchfab_Scene",
      "nodes": [
        0
      ]
    }
  ],
  "textures": [
    {
      "sampler": 0,
      "source": 0
    },
    {
      "sampler": 0,
      "source": 1
    },
    {
      "sampler": 0,
      "source": 2
    },
    {
      "sampler": 0,
      "source": 3
    },
    {
      "sampler": 0,
      "source": 4
    },
    {
      "sampler": 0,
      "source": 5
    },
    {
      "sampler": 0,
      "source": 6
    },
    {
      "sampler": 0,
      "source": 7
    },
    {
      "sampler": 0,
      "source": 8
    },
    {
      "sampler": 0,
      "source": 9
    },
    {
      "sampler": 0,
      "source": 10
    },
    {
      "sampler": 0,
      "source": 11
    },
    {
      "sampler": 0,
      "source": 12
    },
    {
      "sampler": 0,
      "source": 13
    },
    {
      "sampler": 0,
      "source": 14
    },
    {
      "sampler": 0,
      "source": 15
    },
    {
      "sampler": 0,
      "source": 16
    },
    {
      "sampler": 0,
      "source": 17
    },
    {
      "sampler": 0,
      "source": 18
    },
    {
      "sampler": 0,
      "source": 19
    },
    {
      "sampler": 0,
      "source": 20
    },
    {
      "sampler": 0,
      "source": 21
    },
    {
      "sampler": 0,
      "source": 22
    },
    {
      "sampler": 0,
      "source": 23
    },
    {
      "sampler": 0,
      "source": 24
    },
    {
      "sampler": 0,
      "source": 25
    },
    {
      "sampler": 0,
      "source": 26
    },
    {
      "sampler": 0,
      "source": 27
    },
    {
      "sampler": 0,
      "source": 28
    },
    {
      "sampler": 0,
      "source": 29
    },
    {
      "sampler": 0,
      "source": 30
    },
    {
      "sampler": 0,
      "source": 31
    },
    {
      "sampler": 0,
      "source": 32
    },
    {
      "sampler": 0,
      "source": 33
    },
    {
      "sampler": 0,
      "source": 34
    },
    {
      "sampler": 0,
      "source": 35
    },
    {
      "sampler": 0,
      "source": 36
    },
    {
      "sampler": 0,
      "source": 37
    }
  ]
}
